<svg  width="28" height="28" viewBox="0 0 28 28" fill="none" xmlns="http://www.w3.org/2000/svg" data-v-234abea4=""><path d="M17.339 5.95634L19.2057 6.93592C21.2139 7.98979 22.218 8.51672 22.7756 9.4636C23.3332 10.4105 23.3332 11.5887 23.3332 13.9452V14.0544C23.3332 16.4109 23.3332 17.5892 22.7756 18.5361C22.218 19.483 21.2139 20.0099 19.2057 21.0638L17.339 22.0433C15.7005 22.9032 14.8812 23.3332 13.9998 23.3332C13.1185 23.3332 12.2992 22.9032 10.6606 22.0433L8.79398 21.0638C6.78576 20.0099 5.78164 19.483 5.22407 18.5361C4.6665 17.5892 4.6665 16.4109 4.6665 14.0544V13.9452C4.6665 11.5887 4.6665 10.4105 5.22407 9.4636C5.78164 8.51672 6.78576 7.98979 8.79398 6.93592L10.6606 5.95634C12.2992 5.09645 13.1185 4.6665 13.9998 4.6665C14.8812 4.6665 15.7005 5.09645 17.339 5.95634Z" stroke="#6F6F6F" stroke-width="1.75" stroke-linecap="round" class="group-hover:stroke-red transition-200 !duration-[0]" data-v-234abea4=""></path><path d="M22.4001 9.8L18.6668 11.6667M14.0001 14L5.6001 9.8M14.0001 14V22.8667M14.0001 14C14.0001 14 16.5599 12.7201 18.2001 11.9C18.3823 11.8089 18.6668 11.6667 18.6668 11.6667M18.6668 11.6667V14.9333M18.6668 11.6667L9.8001 7" stroke="#6F6F6F" class="group-hover:stroke-red transition-200 !duration-[0]" stroke-width="1.75" stroke-linecap="round" data-v-234abea4=""></path></svg>